<?xml version="1.0" standalone="no"?>
<!DOCTYPE svg PUBLIC "-//W3C//DTD SVG 20010904//EN"
 "http://www.w3.org/TR/2001/REC-SVG-20010904/DTD/svg10.dtd">
<svg version="1.0" xmlns="http://www.w3.org/2000/svg"
 width="192.000000pt" height="192.000000pt" viewBox="0 0 192.000000 192.000000"
 preserveAspectRatio="xMidYMid meet">
<metadata>
Created by potrace 1.14, written by Peter Selinger 2001-2017
</metadata>
<g transform="translate(0.000000,192.000000) scale(0.100000,-0.100000)"
fill="#000000" stroke="none">
<path d="M0 960 l0 -960 960 0 960 0 0 960 0 960 -960 0 -960 0 0 -960z m612
868 c28 -27 88 -120 88 -136 0 -5 3 -12 8 -14 4 -1 15 -20 26 -40 10 -20 30
-41 45 -47 14 -5 98 -15 186 -21 88 -6 183 -14 211 -16 47 -5 54 -3 78 23 14
15 26 31 26 36 0 4 18 27 40 49 22 23 40 45 40 49 0 14 101 81 114 76 27 -10
44 -72 56 -192 11 -114 25 -155 52 -155 5 0 39 -31 76 -69 63 -64 132 -177
132 -214 0 -7 6 -19 13 -25 16 -17 17 -249 0 -283 -6 -13 -14 -31 -17 -39 -14
-36 -109 -139 -128 -140 -4 0 -13 -6 -20 -13 -50 -48 -294 -127 -394 -127 -40
0 -44 -2 -44 -24 0 -13 7 -29 15 -36 8 -7 15 -16 15 -21 0 -11 37 -49 47 -49
4 0 26 -21 49 -46 41 -45 42 -45 61 -26 46 48 92 53 157 17 50 -28 111 -32
140 -10 11 8 32 15 48 15 26 0 28 -3 28 -37 0 -32 -5 -41 -31 -55 -37 -22
-100 -23 -154 -3 -22 8 -60 14 -85 14 -41 1 -50 -4 -100 -54 -30 -30 -59 -54
-65 -55 -5 0 -19 -11 -30 -24 -42 -49 -88 -56 -364 -56 -223 0 -257 2 -273 17
-19 17 -26 83 -8 83 6 0 10 13 10 29 0 17 -4 33 -10 36 -12 8 -13 168 -1 180
5 6 14 27 19 48 9 32 8 38 -8 47 -10 6 -29 10 -41 10 -24 0 -114 25 -164 45
-16 7 -46 18 -65 25 -43 16 -154 89 -195 127 -26 25 -64 79 -102 150 -7 12
-18 60 -25 107 -13 95 -1 205 29 268 23 48 83 129 117 158 15 14 41 36 57 50
16 14 59 41 96 59 38 18 75 36 83 40 8 5 19 21 24 37 4 16 12 36 16 44 4 9 11
31 15 50 4 19 11 41 15 50 5 8 16 33 26 55 14 33 30 54 41 55 1 0 13 -10 25
-22z"/>
<path d="M593 1194 c-44 -34 -47 -92 -7 -123 15 -12 36 -21 48 -21 26 0 71 37
80 67 8 26 -18 79 -43 86 -9 3 -23 7 -31 11 -8 3 -29 -5 -47 -20z m75 -61 c-3
-32 -7 -38 -29 -41 -18 -2 -29 4 -39 22 -17 33 0 56 42 56 28 0 29 -2 26 -37z"/>
<path d="M1146 1139 c-33 -39 -33 -52 3 -89 51 -54 131 -26 131 46 -1 74 -85
101 -134 43z m87 -13 c21 -16 22 -52 1 -60 -32 -12 -64 -6 -65 12 -4 56 24 78
64 48z"/>
<path d="M800 945 c0 -25 6 -39 24 -50 21 -14 56 -12 56 4 0 3 9 12 20 19 17
11 24 9 42 -8 12 -11 28 -20 35 -20 21 0 53 38 47 55 -8 21 -21 19 -27 -5 -3
-11 -10 -20 -15 -20 -12 0 -37 23 -52 48 -8 15 -14 12 -45 -23 -34 -39 -35
-39 -50 -21 -8 11 -15 28 -15 38 0 10 -4 18 -10 18 -5 0 -10 -16 -10 -35z"/>
</g>
</svg>
